# xmcd CD database file
#
# Track frame offsets:
#	150
#	14416
#	28396
#	41910
#	53387
#	67977
#	81668
#	96394
#	109390
#	117832
#	131259
#	142815
#	155473
#	168262
#	181223
#	191134
#	202965
#	216031
#
# Disc length: 3069 seconds
#
# Revision: 0
# Processed by: cddbd v1.5.2PL0 Copyright (c) Steve Scherf et al.
# Submitted via: CDex 1.79
#
DISCID=fd0bfb12
DTITLE=Fats Waller - Jazz Giants CD2
DYEAR=2004
DGENRE=Jazz
TTITLE0=I Got Rhythm
TTITLE1=Dinah
TTITLE2=Believe in Miracles
TTITLE3=Mandy
TTITLE4=Bond Street
TTITLE5=Armfull O'Sweetness
TTITLE6=Honey Hush
TTITLE7=Why Do I Lie To Myself About You
TTITLE8=How Can You Face Me?
TTITLE9=Viper's Drag
TTITLE10=A-Tisket, A-Tasket
TTITLE11=I Ain't Got Nobody (And Nobody Cares For Me)
TTITLE12=Oh! Baby Sweet Baby
TTITLE13=S' Posin'
TTITLE14=Beat It Out
TTITLE15=Paswonky
TTITLE16=I Just Made Up With That Old Girl Of Mine
TTITLE17=B Flat Blues
EXTD=YEAR: 2004
EXTT0=
EXTT1=
EXTT2=
EXTT3=
EXTT4=
EXTT5=
EXTT6=
EXTT7=
EXTT8=
EXTT9=
EXTT10=
EXTT11=
EXTT12=
EXTT13=
EXTT14=
EXTT15=
EXTT16=
EXTT17=
PLAYORDER=
